<?xml version="1.0" encoding="UTF-8"?>
<svg id="Layer_2" data-name="Layer 2" xmlns="http://www.w3.org/2000/svg" viewBox="0 0 4984.83 1398.04">
  <defs>
    <style>
      .cls-1 {
        fill: #fff;
      }
    </style>
  </defs>
  <g id="_Ñëîé_1" data-name="Ñëîé 1">
    <g>
      <rect width="4984.83" height="1398.04" rx="192.21" ry="192.21"/>
      <g>
        <g>
          <g>
            <path class="cls-1" d="M1661.59,383.63l-28.76,87.12h-36.98l94.1-276.95h43.14l94.51,276.95h-38.22l-29.58-87.12h-98.2ZM1752.39,355.69l-27.12-79.69c-6.16-18.1-10.27-34.53-14.38-50.55h-.82c-4.11,16.43-8.63,33.29-13.97,50.12l-27.12,80.13h83.41Z"/>
            <path class="cls-1" d="M1872.5,271.88l39.03,111.74c6.57,18.1,11.92,34.53,16.03,50.95h1.24c4.52-16.43,10.27-32.85,16.85-50.95l38.62-111.74h37.81l-78.07,198.86h-34.51l-75.6-198.86h38.62Z"/>
            <path class="cls-1" d="M2164.75,470.75l-2.88-25.06h-1.24c-11.09,15.62-32.45,29.58-60.81,29.58-40.26,0-60.81-28.34-60.81-57.11,0-48.08,42.73-74.37,119.57-73.97v-4.08c0-16.46-4.52-46.04-45.2-46.04-18.49,0-37.8,5.75-51.77,14.79l-8.21-23.82c16.44-10.67,40.26-17.66,65.33-17.66,60.81,0,75.6,41.49,75.6,81.33v74.37c0,17.26.82,34.13,3.29,47.68h-32.87ZM2159.41,369.27c-39.44-.84-84.23,6.16-84.23,44.76,0,23.42,15.62,34.53,34.11,34.53,25.89,0,42.32-16.43,48.07-33.29,1.24-3.71,2.06-7.8,2.06-11.51v-34.49Z"/>
            <path class="cls-1" d="M2293.04,216.01c.42,12.31-8.62,22.18-23.01,22.18-12.74,0-21.77-9.87-21.77-22.18s9.45-22.62,22.6-22.62,22.18,9.87,22.18,22.62ZM2252.77,470.75v-198.86h36.16v198.86h-36.16Z"/>
            <path class="cls-1" d="M2348.98,179.01h36.16v291.74h-36.16V179.01Z"/>
            <path class="cls-1" d="M2556.12,470.75l-2.88-25.06h-1.24c-11.09,15.62-32.45,29.58-60.81,29.58-40.26,0-60.82-28.34-60.82-57.11,0-48.08,42.73-74.37,119.57-73.97v-4.08c0-16.46-4.52-46.04-45.2-46.04-18.49,0-37.8,5.75-51.77,14.79l-8.21-23.82c16.44-10.67,40.26-17.66,65.33-17.66,60.81,0,75.6,41.49,75.6,81.33v74.37c0,17.26.82,34.13,3.29,47.68h-32.87ZM2550.78,369.27c-39.44-.84-84.23,6.16-84.23,44.76,0,23.42,15.62,34.53,34.11,34.53,25.89,0,42.32-16.43,48.07-33.29,1.24-3.71,2.06-7.8,2.06-11.51v-34.49Z"/>
            <path class="cls-1" d="M2642.51,470.75c.82-13.55,1.64-33.69,1.64-51.36v-240.38h35.75v124.93h.82c12.74-22.18,35.75-36.57,67.8-36.57,49.31,0,84.23,41.08,83.82,101.47,0,71.09-44.78,106.42-89.16,106.42-28.76,0-51.77-11.11-66.56-37.4h-1.23l-1.65,32.89h-31.22ZM2679.89,391.02c0,4.55.82,9.07,1.64,13.15,6.99,25.09,27.94,42.32,54.24,42.32,37.8,0,60.4-30.81,60.4-76.41,0-39.85-20.54-73.97-59.17-73.97-24.65,0-47.66,16.86-55.05,44.4-.83,4.12-2.06,9.03-2.06,14.79v35.73Z"/>
            <path class="cls-1" d="M2878.07,179.01h36.16v291.74h-36.16V179.01Z"/>
            <path class="cls-1" d="M2995.23,377.87c.83,48.91,32.05,69.05,68.21,69.05,25.89,0,41.5-4.52,55.06-10.27l6.16,25.86c-12.74,5.75-34.52,12.35-66.16,12.35-61.22,0-97.78-40.28-97.78-100.27s35.34-107.23,93.27-107.23c64.92,0,82.18,57.11,82.18,93.68,0,7.39-.82,13.15-1.23,16.83h-139.7ZM3101.24,352.01c.41-23.02-9.45-58.75-50.13-58.75-36.57,0-52.59,33.69-55.47,58.75h105.6Z"/>
            <path class="cls-1" d="M3448.17,369.67c0,73.54-50.95,105.59-99.02,105.59-53.83,0-95.33-39.44-95.33-102.31,0-66.58,43.55-105.59,98.61-105.59s95.74,41.49,95.74,102.31ZM3290.39,371.72c0,43.56,25.07,76.45,60.4,76.45s60.41-32.49,60.41-77.25c0-33.69-16.85-76.45-59.59-76.45s-61.22,39.44-61.22,77.25Z"/>
            <path class="cls-1" d="M3493.9,325.71c0-20.54-.41-37.4-1.64-53.83h32.04l2.06,32.85h.82c9.86-18.9,32.87-37.37,65.74-37.37,27.53,0,70.27,16.43,70.27,84.64v118.74h-36.16v-114.62c0-32.05-11.92-58.78-46.02-58.78-23.84,0-42.32,16.86-48.49,37-1.65,4.52-2.47,10.67-2.47,16.83v119.57h-36.16v-145.03Z"/>
            <path class="cls-1" d="M3852.78,214.77v57.11h51.77v27.53h-51.77v107.23c0,24.66,6.98,38.64,27.12,38.64,9.45,0,16.44-1.24,20.95-2.48l1.65,27.1c-6.99,2.88-18.08,4.95-32.05,4.95-16.85,0-30.41-5.35-39.04-15.22-10.27-10.67-13.97-28.34-13.97-51.76v-108.47h-30.82v-27.53h30.82v-47.68l35.33-9.43Z"/>
            <path class="cls-1" d="M3945.29,179.01h36.16v124.09h.82c5.75-10.27,14.8-19.3,25.89-25.46,10.69-6.16,23.42-10.27,36.99-10.27,26.71,0,69.44,16.43,69.44,85.05v118.33h-36.16v-114.22c0-32.05-11.92-59.18-46.02-59.18-23.43,0-41.91,16.46-48.49,36.17-2.06,4.92-2.47,10.27-2.47,17.26v119.97h-36.16V179.01Z"/>
            <path class="cls-1" d="M4193.59,377.87c.83,48.91,32.05,69.05,68.21,69.05,25.89,0,41.5-4.52,55.06-10.27l6.16,25.86c-12.74,5.75-34.52,12.35-66.16,12.35-61.22,0-97.78-40.28-97.78-100.27s35.34-107.23,93.27-107.23c64.92,0,82.18,57.11,82.18,93.68,0,7.39-.82,13.15-1.23,16.83h-139.7ZM4299.61,352.01c.41-23.02-9.45-58.75-50.13-58.75-36.57,0-52.59,33.69-55.47,58.75h105.6Z"/>
          </g>
          <g>
            <path class="cls-1" d="M1681.84,968.37l-50.75,153.71h-65.24l166.02-488.64h76.12l166.74,488.64h-67.43l-52.2-153.71h-173.26ZM1842.06,919.08l-47.86-140.61c-10.86-31.93-18.12-60.92-25.37-89.19h-1.45c-7.25,28.98-15.23,58.73-24.64,88.42l-47.86,141.37h147.17Z"/>
            <path class="cls-1" d="M2042.38,885.73c0-44.92-1.45-81.16-2.89-114.51h57.26l2.91,60.15h1.45c26.11-42.74,67.42-68.12,124.7-68.12,84.81,0,148.6,71.78,148.6,178.32,0,126.14-76.84,188.48-159.48,188.48-46.4,0-86.99-20.31-108.02-55.07h-1.45v190.66h-63.07v-379.91ZM2105.46,979.29c0,9.39,1.45,18.12,2.89,26.09,11.6,44.21,50.03,74.67,95.7,74.67,67.42,0,106.56-55.13,106.56-135.59,0-70.3-36.97-130.51-104.39-130.51-43.49,0-84.09,31.23-96.41,79.04-2.18,7.97-4.35,17.41-4.35,26.09v60.21Z"/>
            <path class="cls-1" d="M2455.09,885.73c0-44.92-1.45-81.16-2.89-114.51h57.27l2.89,60.15h1.45c26.11-42.74,67.42-68.12,124.7-68.12,84.81,0,148.6,71.78,148.6,178.32,0,126.14-76.84,188.48-159.48,188.48-46.4,0-86.99-20.31-108.02-55.07h-1.45v190.66h-63.07v-379.91ZM2518.17,979.29c0,9.39,1.45,18.12,2.91,26.09,11.6,44.21,50.01,74.67,95.68,74.67,67.42,0,106.56-55.13,106.56-135.59,0-70.3-36.97-130.51-104.39-130.51-43.49,0-84.09,31.23-96.41,79.04-2.18,7.97-4.35,17.41-4.35,26.09v60.21Z"/>
            <path class="cls-1" d="M3015.05,1045.23c28.27,17.41,69.59,31.93,113.1,31.93,64.52,0,102.21-34.12,102.21-83.41,0-45.69-26.09-71.78-92.07-97.1-79.73-28.27-129.04-69.59-129.04-138.48,0-76.15,63.07-132.7,158.03-132.7,50.03,0,86.27,11.63,108.02,23.97l-17.4,51.47c-15.95-8.74-48.57-23.2-92.79-23.2-66.7,0-92.07,39.84-92.07,73.2,0,45.69,29.72,68.12,97.15,94.27,82.64,31.88,124.68,71.72,124.68,143.5,0,75.44-55.81,140.66-171.08,140.66-47.12,0-98.59-13.81-124.7-31.17l15.95-52.95Z"/>
            <path class="cls-1" d="M3453.84,670.46v100.76h91.35v48.58h-91.35v189.19c0,43.5,12.34,68.18,47.86,68.18,16.66,0,29-2.18,36.97-4.37l2.89,47.81c-12.32,5.08-31.89,8.74-56.53,8.74-29.72,0-53.64-9.44-68.87-26.86-18.12-18.83-24.64-50-24.64-91.32v-191.37h-54.38v-48.58h54.38v-84.12l62.33-16.65Z"/>
            <path class="cls-1" d="M3930.25,943.76c0,129.74-89.9,186.29-174.71,186.29-94.98,0-168.19-69.59-168.19-180.51,0-117.41,76.84-186.29,173.99-186.29s168.91,73.2,168.91,180.51ZM3651.88,947.36c0,76.85,44.21,134.88,106.56,134.88s106.58-57.32,106.58-136.3c0-59.44-29.74-134.88-105.11-134.88s-108.02,69.59-108.02,136.3Z"/>
            <path class="cls-1" d="M4010.93,880.65c0-41.32-.72-76.8-2.89-109.44h55.81l2.18,68.89h2.89c15.95-47.16,54.38-76.85,97.15-76.85,7.25,0,12.32.71,18.12,2.18v60.15c-6.52-1.48-13.05-2.18-21.75-2.18-44.95,0-76.84,34.06-85.53,81.93-1.46,8.68-2.91,18.83-2.91,29.69v187.06h-63.07v-241.43Z"/>
            <path class="cls-1" d="M4276.38,958.22c1.46,86.3,56.55,121.83,120.34,121.83,45.67,0,73.22-7.97,97.15-18.12l10.88,45.63c-22.47,10.15-60.9,21.78-116.73,21.78-108.01,0-172.52-71.07-172.52-176.91s62.35-189.19,164.56-189.19c114.54,0,144.99,100.76,144.99,165.28,0,13.05-1.45,23.2-2.17,29.69h-246.49ZM4463.42,912.59c.72-40.61-16.68-103.71-88.45-103.71-64.52,0-92.79,59.5-97.87,103.71h186.32Z"/>
          </g>
        </g>
        <g>
          <path class="cls-1" d="M1221.98,881.99c12.69,2.22,20.27,15.47,15.97,27.61-44.78,126.4-123.36,224.49-212.76,224.49-26.56,0-52.2-7.56-76.3-21.25-50.06-28.5-110.53-28.5-160.58,0-24.11,13.69-49.64,21.25-76.2,21.25-139.33,0-252.31-238.11-252.31-450.27s112.98-317.99,252.31-317.99c34.93,0,68.13,8.58,98.37,24.72,36.47,19.61,79.78,19.61,116.24.1,30.24-16.24,63.54-24.82,98.47-24.82,83.12,0,156.94,37.73,202.82,113.27,7.54,12.41.41,28.36-13.78,31.45-85.11,18.54-148.69,94.24-148.69,184.91s67.51,170.98,156.44,186.53Z"/>
          <path class="cls-1" d="M997.41,290.74c-37.87,51.09-91.99,80.1-140.97,80.67-13.7-47.03-1.75-107.29,36.11-158.38,37.87-51.09,92.04-80.06,141.02-80.63,13.7,47.03,1.7,107.25-36.17,158.34Z"/>
        </g>
      </g>
    </g>
  </g>
</svg>