<?xml version="1.0" encoding="UTF-8"?>
<svg id="Layer_2" data-name="Layer 2" xmlns="http://www.w3.org/2000/svg" viewBox="0 0 4984.83 1398.04">
  <defs>
    <style>
      .cls-1 {
        fill: #00d3ff;
      }

      .cls-2 {
        fill: #ff2132;
      }

      .cls-3 {
        fill: #00ff7c;
      }

      .cls-4 {
        fill: #fff;
      }

      .cls-5 {
        fill: #ffd001;
      }
    </style>
  </defs>
  <g id="_Ñëîé_1" data-name="Ñëîé 1">
    <g>
      <rect width="4984.83" height="1398.04" rx="122.96" ry="122.96"/>
      <g>
        <g>
          <path class="cls-3" d="M915.9,530.05l-168.97,168.97-435.67-435.74c15.91-32.95,57.94-48.86,93.06-28.59l511.58,295.36Z"/>
          <path class="cls-5" d="M1108.93,756.46l-193.03,111.47-168.97-168.91,168.97-168.97,193.03,111.47c44.26,25.55,44.26,89.4,0,114.95Z"/>
          <path class="cls-1" d="M746.93,699.02l-435.67,435.67c-4.17-8.58-6.53-18.28-6.53-28.85V292.19c0-10.57,2.36-20.33,6.53-28.91l435.67,435.74Z"/>
          <path class="cls-2" d="M915.9,867.93l-511.58,295.42c-35.12,20.27-77.21,4.35-93.06-28.66l435.67-435.67,168.97,168.91Z"/>
        </g>
        <g>
          <g>
            <g>
              <path class="cls-4" d="M1688.35,426.2c-14.14,4.84-42.07,12.84-75.06,12.84-36.99,0-67.45-9.02-91.38-30.91-21.03-19.46-34.09-50.71-34.09-87.19.37-69.8,50.41-120.87,132.36-120.87,28.29,0,50.41,5.91,60.92,10.77l-7.62,24.66c-13.05-5.54-29.37-10.07-54.03-10.07-59.47,0-98.27,35.44-98.27,94.12s37.35,94.49,94.28,94.49c20.68,0,34.81-2.8,42.07-6.25v-69.82h-49.68v-24.32h80.5v112.56Z"/>
              <path class="cls-4" d="M1863.26,326.85h-95.01v84.39h105.89v25.37h-137.43v-234.11h131.99v25.37h-100.45v73.98h95.01v25Z"/>
              <path class="cls-4" d="M1967.42,228.21h-74.34v-25.71h180.94v25.71h-74.7v208.4h-31.9v-208.4Z"/>
              <path class="cls-4" d="M2209.78,202.5v234.11h-31.54v-234.11h31.54Z"/>
              <path class="cls-4" d="M2311.36,228.21h-74.33v-25.71h180.94v25.71h-74.69v208.4h-31.92v-208.4Z"/>
              <path class="cls-4" d="M2731.04,317.13c0,80.6-51.12,123.3-113.5,123.3s-109.87-47.94-109.87-118.78c0-74.32,48.22-122.96,113.5-122.96s109.87,48.98,109.87,118.44ZM2541.39,320.94c0,50.03,28.29,94.82,77.96,94.82s78.33-44.12,78.33-97.26c0-46.52-25.39-95.16-77.96-95.16s-78.32,46.21-78.32,97.6Z"/>
              <path class="cls-4" d="M2772.15,436.61v-234.11h34.44l78.32,118.44c18.14,27.46,32.28,52.12,43.88,76.07l.72-.34c-2.9-31.28-3.63-59.76-3.63-96.21v-97.96h29.74v234.11h-31.91l-77.6-118.78c-17.04-26.05-33.36-52.8-45.69-78.14l-1.08.34c1.82,29.52,2.54,57.64,2.54,96.55v100.03h-29.73Z"/>
            </g>
            <g>
              <path class="cls-4" d="M1852.63,1033.8c-25.73,9.19-76.53,24.39-136.55,24.39-67.29,0-122.71-17.13-166.24-58.71-38.26-36.95-62.01-96.31-62.01-165.6.67-132.56,91.7-229.57,240.78-229.57,51.46,0,91.7,11.23,110.82,20.46l-13.86,46.84c-23.74-10.53-53.43-19.12-98.28-19.12-108.19,0-178.77,67.3-178.77,178.76s67.95,179.46,171.51,179.46c37.61,0,63.33-5.32,76.53-11.87v-132.62h-90.37v-46.19h146.45v213.78Z"/>
              <path class="cls-4" d="M2230.84,891.3c0,118.06-81.81,169.52-158.98,169.52-86.42,0-153.04-63.33-153.04-164.26,0-106.89,69.92-169.52,158.32-169.52s153.7,66.6,153.7,164.26ZM1977.52,894.58c0,69.93,40.23,122.74,96.97,122.74s96.98-52.16,96.98-124.02c0-54.09-27.06-122.73-95.65-122.73s-98.3,63.33-98.3,124.02Z"/>
              <path class="cls-4" d="M2593.19,891.3c0,118.06-81.81,169.52-158.98,169.52-86.42,0-153.04-63.33-153.04-164.26,0-106.89,69.92-169.52,158.32-169.52s153.7,66.6,153.7,164.26ZM2339.87,894.58c0,69.93,40.23,122.74,96.97,122.74s96.98-52.16,96.98-124.02c0-54.09-27.06-122.73-95.65-122.73s-98.3,63.33-98.3,124.02Z"/>
              <path class="cls-4" d="M2941.68,734.3c-1.32,23.1-2.63,48.83-2.63,87.71v185.36c0,73.26-14.52,118.12-45.52,145.78-31.01,29.06-75.86,38.3-116.1,38.3s-80.48-9.24-106.2-26.37l14.52-44.21c21.11,13.16,54.09,25.03,93.68,25.03,59.37,0,102.9-30.99,102.9-111.46v-35.61h-1.32c-17.82,29.65-52.12,53.39-101.59,53.39-79.17,0-135.89-67.25-135.89-155.66,0-108.18,70.58-169.52,143.8-169.52,55.42,0,85.75,29.01,99.61,55.38h1.32l2.65-48.13h50.79ZM2881.65,860.31c0-9.94-.66-18.48-3.3-26.43-10.55-33.62-38.92-61.34-81.13-61.34-55.42,0-94.99,46.84-94.99,120.75,0,62.63,31.66,114.79,94.33,114.79,35.63,0,67.95-22.45,80.48-59.41,3.3-9.88,4.62-21.11,4.62-30.99v-57.37Z"/>
              <path class="cls-4" d="M3035.56,585.19h58.05v468.38h-58.05v-468.38Z"/>
              <path class="cls-4" d="M3223.65,904.46c1.32,78.53,51.46,110.86,109.51,110.86,41.56,0,66.63-7.25,88.4-16.49l9.9,41.52c-20.45,9.24-55.42,19.82-106.2,19.82-98.3,0-157-64.67-157-160.98s56.72-172.15,149.74-172.15c104.23,0,131.93,91.69,131.93,150.4,0,11.87-1.32,21.11-1.97,27.02h-224.29ZM3393.84,862.94c.67-36.95-15.16-94.32-80.48-94.32-58.71,0-84.44,54.09-89.06,94.32h169.53Z"/>
            </g>
          </g>
          <g>
            <path class="cls-4" d="M3607.69,614.25c27.7-4.62,63.99-8.59,110.15-8.59,56.73,0,98.3,13.21,124.68,36.95,24.41,21.11,38.92,53.44,38.92,92.98s-11.87,71.92-34.3,95.02c-30.35,32.34-79.82,48.83-135.89,48.83-17.15,0-32.98-.7-46.18-3.97v178.11h-57.38v-439.32ZM3665.07,828.62c12.54,3.28,28.37,4.62,47.5,4.62,69.26,0,111.48-33.62,111.48-94.97s-41.55-87.12-104.88-87.12c-25.07,0-44.21,1.99-54.1,4.62v172.85Z"/>
            <path class="cls-4" d="M3953.55,585.19h58.05v468.38h-58.05v-468.38Z"/>
            <path class="cls-4" d="M4286.12,1053.57l-4.62-40.23h-1.99c-17.81,25.08-52.1,47.48-97.62,47.48-64.64,0-97.64-45.5-97.64-91.69,0-77.19,68.61-119.4,191.97-118.76v-6.55c0-26.43-7.26-73.91-72.57-73.91-29.69,0-60.68,9.24-83.12,23.74l-13.19-38.24c26.39-17.13,64.64-28.36,104.89-28.36,97.62,0,121.38,66.6,121.38,130.58v119.4c0,27.72,1.32,54.79,5.28,76.54h-52.77ZM4277.53,890.66c-63.33-1.34-135.24,9.88-135.24,71.87,0,37.6,25.07,55.43,54.76,55.43,41.56,0,67.95-26.37,77.17-53.44,1.99-5.96,3.3-12.52,3.3-18.48v-55.38Z"/>
            <path class="cls-4" d="M4443.28,734.3l69.92,188.64c7.26,21.11,15.17,46.19,20.45,65.32h1.32c5.95-19.12,12.54-43.51,20.45-66.6l63.33-187.35h61.35l-87.07,227.58c-41.56,109.52-69.93,165.54-109.51,199.87-28.37,25.08-56.73,34.97-71.25,37.6l-14.52-48.83c14.52-4.62,33.65-13.86,50.8-28.36,15.83-12.52,35.63-34.97,48.81-64.62,2.65-5.96,4.62-10.58,4.62-13.86s-1.32-7.95-3.95-15.2l-118.09-294.19h63.33Z"/>
          </g>
        </g>
      </g>
    </g>
  </g>
</svg>